<?xml version="1.0" standalone="no"?>
<!DOCTYPE svg PUBLIC "-//W3C//DTD SVG 20010904//EN"
 "http://www.w3.org/TR/2001/REC-SVG-20010904/DTD/svg10.dtd">
<svg version="1.0" xmlns="http://www.w3.org/2000/svg"
 width="701.000000pt" height="701.000000pt" viewBox="0 0 701.000000 701.000000"
 preserveAspectRatio="xMidYMid meet">
<metadata>
Created by potrace 1.11, written by Peter Selinger 2001-2013
</metadata>
<g transform="translate(0.000000,701.000000) scale(0.100000,-0.100000)"
fill="#000000" stroke="none">
<path d="M1424 6999 c-3 -6 -3 -13 0 -16 3 -4 6 -1 6 5 0 15 27 15 36 0 5 -7
2 -8 -7 -3 -11 6 -12 5 -2 -5 10 -11 10 -17 -3 -31 -15 -17 -11 -65 4 -55 4 2
8 -9 9 -25 4 -66 6 -80 14 -84 4 -3 1 -24 -7 -47 -8 -23 -12 -43 -9 -46 3 -3
-1 -12 -8 -20 -10 -13 -9 -15 7 -9 17 7 18 6 3 -17 -9 -13 -19 -39 -22 -58 -3
-18 -8 -41 -11 -50 -3 -10 -1 -18 5 -18 6 0 7 -11 3 -27 -4 -16 -6 -41 -5 -58
1 -16 3 -46 4 -65 1 -49 4 -50 46 -29 37 19 78 26 70 12 -3 -5 29 -9 71 -11
43 -1 89 -7 103 -13 24 -9 26 -13 15 -33 -6 -12 -32 -47 -58 -77 -26 -30 -59
-79 -74 -109 -15 -30 -39 -70 -53 -89 -21 -28 -22 -34 -8 -28 11 4 16 3 12 -3
-3 -6 -13 -10 -21 -10 -8 0 -14 -4 -14 -10 0 -5 4 -10 10 -10 16 0 -2 -33 -37
-68 -18 -18 -33 -43 -33 -55 -1 -25 -24 -60 -33 -50 -4 3 -7 15 -7 26 0 26
-12 14 -27 -26 -6 -18 -12 -24 -12 -14 -1 9 -9 17 -18 17 -13 0 -14 3 -6 8 10
6 10 15 1 40 -7 18 -16 32 -21 32 -4 0 -6 4 -2 10 5 8 -19 80 -27 80 -2 0 -4
-15 -4 -33 -1 -17 -4 -42 -7 -54 -3 -13 -1 -26 5 -29 7 -5 8 -2 3 6 -5 9 -4
11 4 6 9 -6 9 -13 -3 -30 -14 -22 -13 -23 10 -18 19 3 23 1 18 -11 -3 -10 -12
-13 -22 -10 -15 6 -15 4 1 -15 12 -13 16 -28 12 -41 -3 -12 -2 -21 3 -21 6 0
6 -10 -1 -24 -7 -13 -16 -22 -21 -19 -5 4 -6 1 -1 -7 9 -15 -11 -29 -45 -31
-23 -1 -23 -2 5 -9 17 -4 24 -8 18 -9 -7 0 -13 -7 -13 -14 0 -7 -8 -17 -18
-23 -9 -6 -18 -24 -20 -39 -1 -16 -9 -39 -17 -51 -17 -26 -17 -93 0 -110 6 -6
22 -11 35 -10 22 1 24 -3 23 -39 0 -22 -7 -53 -14 -70 -7 -16 -11 -34 -10 -38
1 -4 -5 -18 -14 -30 -8 -12 -15 -29 -15 -38 0 -9 -7 -22 -15 -29 -8 -7 -15
-19 -15 -26 0 -8 -17 -54 -38 -103 -24 -54 -34 -87 -25 -84 7 3 13 11 13 17 0
7 13 25 30 41 16 15 27 31 25 35 -2 4 2 16 11 26 14 18 15 18 8 -6 -3 -14 -12
-32 -18 -40 -7 -8 -20 -34 -28 -57 -14 -36 -14 -43 -2 -43 8 0 14 6 14 13 0
20 45 70 66 73 18 3 18 2 -1 -15 -27 -23 -63 -66 -47 -57 6 4 12 2 12 -3 0 -6
-7 -11 -15 -11 -8 0 -15 -8 -16 -17 0 -10 -3 -29 -5 -43 -2 -14 -5 -34 -5 -45
0 -10 -17 -51 -39 -90 -21 -38 -44 -83 -50 -99 -10 -27 -9 -28 7 -16 10 8 3 0
-15 -18 -17 -17 -32 -35 -32 -39 -4 -131 -22 -226 -54 -275 -22 -34 -15 -162
12 -212 l20 -38 4 29 c3 30 26 38 38 13 4 -8 14 -30 23 -48 24 -48 21 -73 -14
-106 -27 -25 -29 -30 -14 -38 11 -7 14 -16 9 -31 -6 -18 -1 -17 31 11 43 39
53 36 31 -9 -9 -18 -16 -35 -16 -40 0 -4 -25 -44 -55 -89 -41 -61 -53 -88 -49
-105 5 -19 -13 -43 -100 -139 -65 -71 -103 -121 -100 -130 3 -7 -8 -29 -24
-47 -57 -66 -90 -135 -97 -202 -2 -16 -12 -38 -23 -50 -11 -12 -22 -33 -25
-47 -4 -14 -22 -41 -40 -61 -25 -27 -36 -50 -41 -85 -4 -33 -15 -58 -35 -79
-27 -28 -51 -66 -51 -79 0 -3 16 12 36 34 20 22 40 40 45 40 15 0 10 -47 -6
-64 -19 -19 -19 -27 0 -20 13 5 13 3 0 -22 -9 -18 -13 -41 -9 -61 6 -31 -22
-115 -68 -206 -28 -55 -16 -57 16 -2 15 25 31 45 36 45 4 0 12 15 15 33 4 17
13 39 20 47 7 8 15 22 18 30 3 8 5 -3 3 -25 -1 -22 -4 -44 -7 -50 -4 -5 -9
-23 -13 -39 -5 -21 -10 -26 -16 -17 -5 10 -10 3 -14 -20 -17 -94 -42 -189 -48
-189 -5 0 -8 5 -8 11 0 5 -5 7 -10 4 -13 -8 -13 -42 -1 -50 5 -3 18 8 27 25
20 33 44 40 44 12 0 -22 -53 -107 -58 -92 -2 5 -7 8 -12 5 -4 -2 -10 9 -14 26
-4 22 -10 30 -21 25 -12 -4 -15 3 -15 29 0 19 -4 35 -10 35 -5 0 -10 -18 -10
-40 0 -22 5 -40 10 -40 6 0 10 -12 10 -26 0 -14 7 -32 15 -40 20 -21 18 -46
-9 -129 l-24 -70 -6 45 c-13 100 -15 87 -12 -97 4 -222 11 -203 -107 -268 -38
-21 -76 -46 -85 -55 -10 -10 -39 -37 -67 -60 -27 -24 -67 -66 -87 -93 l-38
-51 0 -638 0 -638 3363 0 3362 0 12 28 c13 29 25 75 44 165 13 60 36 102 45
80 4 -8 13 -9 34 -2 43 15 54 84 12 77 -9 -2 -20 -7 -24 -13 -4 -5 -10 -2 -13
7 -6 16 18 73 89 208 13 25 34 72 47 104 20 52 23 74 18 129 -3 27 10 169 15
175 3 3 6 38 6 77 0 68 -2 74 -33 108 -19 19 -38 32 -44 29 -16 -11 -13 -99 3
-113 16 -13 19 -55 5 -63 -15 -10 -89 67 -97 99 -3 17 -18 45 -31 62 -18 24
-21 37 -15 50 16 28 50 23 64 -9 14 -30 45 -41 33 -10 -4 9 -11 30 -16 46 -5
16 -35 54 -68 85 -61 58 -72 79 -73 133 0 39 -22 78 -43 78 -8 0 -14 3 -13 8
1 4 -4 20 -10 35 -7 16 -10 32 -7 37 3 4 -18 53 -45 109 -28 56 -50 114 -50
130 0 16 -7 34 -15 41 -8 7 -15 18 -15 24 0 6 -24 38 -53 71 -68 77 -96 126
-98 173 -1 20 -9 48 -18 62 -8 14 -25 43 -37 65 -11 23 -26 50 -32 60 -6 11
-13 32 -17 47 -3 15 -18 42 -33 60 -28 33 -62 109 -62 140 0 8 -7 21 -15 28
-8 7 -15 22 -15 34 0 12 -7 32 -16 44 -8 12 -13 22 -10 22 3 0 1 12 -4 26 -9
23 -8 25 7 20 13 -5 11 0 -8 21 -33 37 -54 84 -40 93 18 10 -17 50 -37 43 -15
-6 -15 -5 -2 11 13 16 12 18 -5 15 -11 -1 -29 2 -39 6 -19 8 -19 9 -1 15 10 4
20 15 21 26 5 28 -15 82 -34 94 -11 6 -12 9 -4 10 26 0 -1 21 -66 51 -109 49
-210 109 -184 109 8 0 10 5 5 13 -4 6 13 -4 37 -23 52 -42 154 -93 158 -80 2
5 14 5 29 -1 33 -12 54 3 44 34 -12 42 -51 105 -76 125 -14 11 -25 24 -25 30
0 9 -72 52 -87 52 -3 0 1 -8 8 -17 13 -16 12 -17 -3 -5 -10 8 -16 17 -15 22 1
4 -9 17 -23 29 -27 25 -11 19 33 -11 15 -11 27 -15 27 -10 0 19 -121 192 -145
208 -14 9 -22 20 -19 26 3 5 13 1 21 -9 16 -19 16 -19 -3 57 -3 14 15 -6 42
-46 27 -41 63 -80 81 -89 36 -20 79 -62 71 -70 -3 -3 -12 0 -19 8 -8 7 -27 22
-43 32 l-29 19 28 -44 c44 -71 119 -160 134 -160 10 0 11 3 2 13 -6 8 -8 16
-5 20 3 3 0 15 -6 28 -10 18 -10 21 2 16 17 -6 21 21 5 41 -6 8 -6 12 2 12 7
0 9 5 5 11 -4 8 0 8 15 0 11 -7 21 -15 21 -19 0 -8 53 -42 64 -42 12 0 -8 36
-37 67 -30 32 -32 58 -2 33 26 -21 17 7 -13 42 -16 18 -34 49 -42 68 -7 19
-38 62 -69 94 -45 47 -49 54 -19 32 38 -28 55 -20 36 17 -5 10 -8 26 -6 35 2
9 18 -13 38 -53 19 -38 41 -71 48 -73 9 -3 10 3 2 24 -8 20 -8 29 1 34 13 9
-11 100 -41 161 -11 21 -17 48 -14 64 2 14 -2 40 -11 57 -8 17 -12 34 -10 39
3 4 0 11 -6 15 -8 5 -10 2 -5 -7 10 -19 -52 51 -65 74 -17 30 8 19 36 -15 16
-21 23 -26 19 -13 -4 11 -16 31 -28 45 -12 13 -14 19 -5 12 9 -6 19 -9 22 -5
4 3 9 -3 13 -13 12 -38 29 -69 43 -78 11 -7 11 -10 1 -16 -10 -6 -8 -16 8 -45
12 -20 18 -33 12 -30 -20 12 -9 -22 21 -70 24 -37 33 -45 40 -34 14 22 11 65
-6 79 -8 7 -15 21 -15 32 0 17 3 18 15 8 8 -6 20 -10 27 -7 8 4 7 6 -4 6 -10
1 -18 7 -19 14 -3 56 -10 90 -27 137 -11 30 -27 82 -37 115 -9 33 -34 114 -55
180 -21 66 -44 147 -51 180 -7 33 -16 67 -20 75 -4 9 -13 53 -19 98 -12 92
-37 177 -145 492 -95 280 -88 262 -173 430 -106 210 -167 313 -247 418 -38 52
-78 108 -88 125 -10 18 -31 43 -46 57 -16 14 -52 57 -81 95 -29 39 -63 81 -76
94 -13 13 -24 28 -24 32 0 12 27 11 35 -1 3 -5 14 -10 23 -10 15 0 15 1 0 17
-10 9 -31 16 -47 16 -19 0 -39 9 -53 24 -19 20 -19 23 -4 23 15 0 14 3 -4 23
-12 12 -27 22 -33 22 -7 0 -11 8 -9 18 2 9 -2 17 -8 17 -5 0 -18 8 -28 18 -10
10 -34 26 -55 35 -20 10 -41 26 -46 35 -5 9 -30 23 -56 31 -26 7 -49 20 -52
27 -3 7 -14 16 -26 20 -12 4 -27 12 -34 19 -7 7 -31 16 -53 20 -23 4 -40 12
-40 20 0 7 -41 29 -90 49 l-90 36 -614 0 c-578 0 -616 -1 -657 -19 -64 -27
-103 -35 -93 -19 6 11 5 11 -8 0 -24 -20 -188 -73 -232 -76 -32 -2 -46 3 -69
26 -17 15 -34 28 -38 28 -5 0 -9 5 -9 11 0 7 -10 20 -22 30 -20 18 -47 19
-564 19 -363 0 -545 -4 -550 -11z m40 -74 c-4 -8 -8 -15 -10 -15 -2 0 -4 7 -4
15 0 8 4 15 10 15 5 0 7 -7 4 -15z m961 -125 c4 -6 -13 -10 -49 -10 -30 0 -62
-3 -72 -7 -16 -6 -16 -5 -5 8 16 17 116 25 126 9z m5 -39 c2 0 -13 -13 -35
-28 -22 -14 -42 -29 -45 -33 -3 -3 -28 -22 -56 -42 -72 -53 -130 -73 -108 -37
4 7 8 25 9 40 2 15 11 36 20 46 31 31 168 65 215 54z m2400 -66 c14 -16 10
-18 -14 -9 -9 3 -16 10 -16 15 0 14 16 11 30 -6z m-3470 -925 c0 -5 -5 -10
-11 -10 -5 0 -7 5 -4 10 3 6 8 10 11 10 2 0 4 -4 4 -10z m10 -29 c0 -6 -4 -12
-8 -15 -5 -3 -9 1 -9 9 0 8 4 15 9 15 4 0 8 -4 8 -9z m2390 -224 c14 -2 31 1
38 6 8 6 17 5 27 -3 10 -9 15 -9 15 -1 0 13 46 15 55 2 3 -5 31 -15 63 -22 36
-8 67 -23 84 -40 17 -17 31 -23 40 -18 10 7 9 9 -4 9 -24 0 -43 36 -20 38 31
2 63 -8 57 -18 -3 -6 3 -10 13 -10 13 0 22 -9 26 -25 4 -14 10 -24 14 -24 30
5 43 -2 37 -21 -5 -15 -3 -18 9 -14 8 3 19 -3 26 -15 6 -12 7 -21 3 -21 -4 0
0 -5 10 -11 9 -5 17 -17 17 -25 0 -9 5 -12 12 -8 7 5 9 2 5 -8 -4 -11 3 -20
24 -28 19 -8 28 -18 25 -26 -3 -8 -2 -14 2 -14 12 0 55 -98 47 -109 -3 -6 -1
-11 4 -11 6 0 11 -4 11 -10 0 -17 43 -55 48 -42 2 7 8 12 14 12 5 0 6 -9 3
-20 -4 -11 -2 -20 4 -20 6 0 10 3 10 8 -3 19 3 22 21 12 26 -14 28 -55 3 -46
-11 4 -9 -1 6 -13 14 -10 30 -17 37 -14 7 2 15 -1 19 -6 3 -6 11 -9 16 -5 6 3
13 -3 16 -15 5 -21 53 -59 53 -42 0 5 -5 13 -10 16 -6 4 -8 11 -5 16 10 15 32
10 40 -8 12 -29 13 -93 2 -93 -5 0 -5 -6 2 -14 6 -7 9 -22 5 -32 -3 -11 1 -9
10 6 l15 25 1 -29 c0 -23 2 -26 14 -17 12 10 13 8 9 -10 -4 -14 -2 -20 5 -15
11 6 24 -22 28 -59 1 -11 7 -48 12 -82 6 -34 8 -72 5 -85 -4 -21 -3 -22 10 -5
21 25 26 21 20 -18 -4 -23 -2 -35 6 -35 7 0 11 -23 11 -62 0 -61 -14 -72 -22
-18 l-4 25 -11 -25 c-6 -14 -19 -32 -28 -40 -15 -12 -19 -12 -29 1 -6 9 -21
19 -34 23 -12 4 -22 15 -22 23 0 9 -3 13 -6 10 -4 -4 -20 3 -37 15 l-29 21 7
-24 c7 -21 6 -22 -8 -11 -10 8 -29 11 -51 8 -19 -3 -38 -1 -41 4 -3 6 -11 10
-16 10 -6 0 -7 -5 -3 -12 5 -8 2 -9 -9 -5 -10 4 -29 2 -44 -4 -19 -7 -29 -7
-31 0 -5 15 -22 14 -22 -2 0 -8 -13 -12 -35 -11 -19 1 -32 -2 -29 -7 3 -5 -2
-9 -10 -9 -9 0 -16 -4 -16 -8 0 -12 -70 -32 -109 -32 -17 0 -31 -5 -31 -11 0
-6 6 -9 13 -6 8 3 20 1 28 -4 11 -7 11 -9 -3 -9 -10 0 -18 -7 -18 -15 0 -17
16 -20 25 -5 4 6 11 7 17 4 7 -5 8 -2 3 6 -6 10 -4 12 9 7 10 -4 22 -7 27 -7
4 0 6 -7 2 -16 -5 -14 -1 -15 28 -10 19 3 27 3 19 -1 -8 -3 -19 -12 -23 -19
-4 -8 -15 -14 -22 -14 -8 0 -15 -4 -15 -10 0 -14 8 -13 54 9 23 10 64 22 91
26 68 10 86 13 115 18 14 3 40 5 58 6 21 1 31 5 26 12 -9 14 91 6 110 -10 7
-6 15 -8 18 -5 4 3 16 -3 27 -13 15 -12 21 -30 22 -63 l1 -45 8 38 c4 20 10
40 13 44 9 8 9 -75 0 -106 -6 -23 -7 -24 -15 -5 -6 14 -7 11 -3 -11 6 -38 -8
-63 -27 -48 -7 6 -22 9 -32 7 -11 -1 -25 0 -30 4 -6 4 -24 7 -41 8 -83 2 -85
3 -85 29 0 31 -21 29 -37 -5 -7 -14 -12 -19 -13 -12 0 6 -7 12 -15 12 -8 0
-15 8 -15 18 -1 13 -4 11 -15 -8 -13 -23 -14 -24 -21 -6 -7 18 -8 18 -20 2
-11 -16 -13 -16 -22 0 -8 14 -10 13 -16 -11 -6 -23 -11 -26 -33 -22 -26 5 -61
-8 -75 -28 -4 -5 -12 -11 -18 -11 -5 -1 -14 -2 -18 -3 -5 0 -15 -12 -22 -26
-7 -13 -21 -27 -32 -31 -10 -3 -18 -10 -18 -15 0 -6 -12 -26 -26 -44 -14 -19
-23 -38 -20 -44 3 -5 -1 -11 -9 -15 -8 -3 -15 -12 -15 -19 0 -8 -7 -20 -16
-28 -20 -17 -55 -85 -47 -93 3 -3 11 -2 17 3 6 5 29 11 51 14 88 12 108 17
136 31 16 8 26 10 23 4 -4 -7 -2 -8 5 -4 13 9 23 10 154 30 64 10 107 12 123
6 14 -6 26 -6 29 0 3 5 13 6 22 3 11 -4 14 -2 9 5 -4 7 6 13 29 18 19 3 37 10
40 14 3 5 13 6 24 3 10 -2 25 3 34 12 10 9 28 14 44 12 29 -4 34 -18 69 -206
3 -13 6 -22 8 -20 3 4 -2 49 -19 187 -7 61 10 73 21 15 12 -69 23 -69 19 0 -3
39 0 67 5 67 6 0 10 -17 10 -37 0 -62 12 -116 21 -101 7 10 9 10 9 -3 0 -8 9
-34 20 -57 11 -22 20 -46 20 -52 0 -22 15 -9 16 15 1 14 -2 25 -6 25 -4 0 -11
11 -14 24 -3 13 -9 31 -12 40 -6 15 -3 15 21 4 25 -11 27 -16 23 -59 -3 -26
-1 -55 5 -64 7 -12 5 -20 -4 -26 -9 -5 -9 -9 -3 -9 7 0 15 -12 18 -26 4 -15
14 -33 21 -41 8 -8 15 -22 16 -31 0 -9 2 -24 4 -34 4 -20 55 -97 55 -83 0 6 8
1 16 -10 15 -19 16 -18 10 20 l-7 40 27 -47 c26 -46 48 -62 24 -19 -8 16 -8
21 1 21 8 0 8 4 -1 15 -10 12 -9 15 6 15 14 0 12 6 -13 30 -42 41 -84 130 -94
198 -4 32 -11 73 -14 92 -4 29 -4 31 5 13 5 -13 11 -23 13 -23 2 0 2 55 1 123
-4 122 0 157 16 157 5 0 14 -16 20 -35 6 -19 15 -33 20 -30 5 3 8 -4 7 -15 -1
-11 -5 -20 -9 -20 -17 0 -7 -48 11 -53 12 -3 21 -17 25 -40 6 -35 21 -55 32
-44 3 3 1 14 -5 26 -9 17 -41 159 -41 184 0 4 4 7 9 7 5 0 11 -15 14 -32 3
-18 10 -51 16 -73 16 -56 23 -87 25 -110 0 -11 10 -21 20 -23 15 -3 18 0 13
17 -3 12 -1 19 4 15 5 -3 9 -16 9 -29 0 -13 4 -25 9 -27 14 -5 25 -78 12 -78
-12 0 -38 24 -64 60 -17 25 -17 25 -2 -7 8 -18 15 -38 15 -46 0 -8 7 -28 15
-43 8 -16 15 -37 15 -46 0 -10 5 -18 11 -18 7 0 9 10 4 28 -5 21 -4 24 5 15
12 -11 32 -94 25 -101 -2 -2 -10 9 -19 25 -11 21 -15 23 -16 10 0 -25 -22 -17
-37 14 -7 13 -13 20 -13 14 0 -5 -12 3 -25 20 l-25 30 11 -36 c8 -23 17 -36
28 -35 10 1 25 -17 39 -44 12 -25 31 -57 42 -72 14 -19 16 -28 7 -31 -9 -3 -9
-8 2 -20 7 -10 10 -17 6 -17 -14 0 19 -32 42 -41 16 -6 23 -17 25 -39 0 -16 1
-35 2 -41 1 -7 -7 -17 -16 -23 -14 -8 -23 -5 -45 14 -15 14 -22 18 -15 9 6 -9
9 -19 6 -22 -3 -3 1 -16 10 -29 17 -24 21 -58 7 -58 -5 0 -9 -82 -10 -182 -1
-277 -43 -430 -164 -600 -51 -70 -271 -321 -413 -470 -79 -84 -95 -107 -113
-161 -27 -79 -31 -100 -38 -162 -2 -27 -7 -57 -10 -65 -4 -8 -5 -19 -4 -24 1
-4 -5 -33 -14 -64 -12 -40 -13 -57 -5 -62 7 -4 10 -33 9 -76 -3 -97 9 -308 20
-336 13 -34 13 -36 -5 -71 -19 -36 -34 -49 -85 -76 -165 -89 -680 -115 -889
-45 -207 69 -495 236 -537 310 -22 41 -45 142 -36 158 4 5 1 6 -6 1 -9 -5 -12
-1 -10 11 1 11 -2 37 -8 59 -6 22 -11 49 -11 60 0 11 -3 47 -8 80 -4 33 -8 97
-9 142 0 46 -2 83 -5 83 -3 0 -5 11 -5 25 0 18 7 28 23 32 22 5 31 23 11 23
-6 0 -16 6 -23 13 -7 6 -53 48 -102 92 -353 316 -525 545 -586 776 -24 93 -30
267 -10 291 14 17 -5 212 -30 303 -33 122 -40 249 -18 350 1 6 2 12 1 15 -1 3
-4 30 -7 61 -4 54 4 96 26 122 62 76 86 123 116 226 17 58 23 66 72 97 29 19
61 34 72 34 11 0 20 7 20 15 0 23 46 37 125 41 38 1 71 7 73 13 5 14 32 14 32
1 0 -5 5 -10 11 -10 5 0 7 5 4 10 -4 6 13 10 42 11 26 0 56 2 67 4 30 6 162
-25 245 -57 17 -6 27 -5 32 4 7 10 9 10 9 -2 0 -8 9 -21 19 -27 16 -10 22 -9
32 3 7 8 19 12 28 9 13 -4 12 -2 -1 9 -10 7 -18 20 -18 28 0 8 -10 20 -22 26
-21 10 -20 11 8 7 40 -6 67 19 32 29 -19 5 -21 8 -8 16 12 9 12 11 -5 9 -11
-1 -49 12 -85 28 -110 51 -230 79 -378 88 -74 4 -84 3 -118 -20 -33 -23 -93
-45 -120 -45 -6 0 -17 -6 -24 -14 -6 -8 -19 -12 -27 -9 -10 4 -14 2 -10 -4 10
-17 -2 -40 -24 -46 -28 -8 -31 7 -8 37 12 15 19 30 15 33 -3 4 -6 1 -6 -5 0
-7 -5 -12 -11 -12 -6 0 -9 10 -7 23 2 13 10 22 19 21 13 -1 15 6 12 34 -3 22
0 38 9 43 10 7 9 9 -4 9 -10 0 -18 7 -18 15 0 8 5 15 11 15 8 0 8 4 0 14 -9
10 -8 16 4 26 8 7 15 19 15 26 0 8 4 14 9 14 5 0 7 9 4 20 -3 11 0 27 7 35 9
11 9 15 1 15 -18 0 6 40 40 69 16 13 29 30 29 37 0 7 16 43 35 81 19 37 35 78
35 91 0 13 4 20 10 17 6 -3 10 2 10 11 0 10 3 15 6 11 4 -3 13 1 21 9 8 8 18
12 23 9 4 -3 13 2 20 10 9 10 9 15 1 15 -6 0 -11 -5 -11 -11 0 -5 -5 -7 -12
-3 -8 5 -6 11 6 20 13 9 14 13 4 17 -9 4 -7 6 4 6 9 1 26 13 38 29 12 15 23
26 26 25 2 -1 15 8 28 20 22 19 23 24 11 33 -13 9 -8 16 25 38 22 14 40 29 40
32 0 3 -4 2 -10 -1 -5 -3 -10 -4 -10 -1 0 4 18 13 40 22 21 9 42 25 46 36 3
12 11 17 20 14 9 -3 12 -1 9 4 -3 6 -1 10 6 10 8 0 7 5 -2 17 -12 15 -12 16 2
11 20 -8 39 9 39 34 0 10 5 18 12 18 6 0 8 3 5 7 -11 10 13 33 35 33 10 0 21
6 23 13 3 6 24 13 48 14 23 2 43 7 45 13 2 5 14 7 26 4 14 -3 27 1 35 10 7 9
29 18 50 22 20 4 42 11 48 16 7 6 24 8 38 6 14 -3 25 -1 25 3 0 5 21 7 48 5
54 -4 97 8 86 26 -4 6 -3 8 3 5 6 -4 13 -1 16 7 4 9 14 12 26 9 10 -3 27 -1
36 4 16 9 62 9 125 0z m1695 -67 c18 0 20 -17 3 -22 -16 -6 -48 34 -48 59 1
14 4 12 16 -9 8 -16 21 -28 29 -28z m15 -61 c0 -6 -4 -7 -10 -4 -5 3 -10 11
-10 16 0 6 5 7 10 4 6 -3 10 -11 10 -16z m3 -71 c3 -10 5 -18 3 -18 -5 0 -46
69 -46 77 0 9 36 -40 43 -59z m-315 -13 c-3 -3 -9 2 -12 12 -6 14 -5 15 5 6 7
-7 10 -15 7 -18z m265 -87 c4 -10 4 -18 2 -18 -6 0 -35 56 -35 67 0 10 25 -27
33 -49z m116 26 c3 -16 1 -17 -13 -5 -19 16 -21 34 -3 29 6 -3 14 -13 16 -24z
m-516 -69 l6 -30 -14 30 c-16 34 -21 72 -6 45 5 -8 11 -28 14 -45z m-3763 -6
c-7 -11 -14 -18 -17 -15 -3 3 0 12 7 21 18 21 23 19 10 -6z m3940 -28 c-1 -12
-4 -11 -12 4 -18 30 -20 54 -2 31 8 -11 14 -27 14 -35z m-803 24 c0 -8 -4 -12
-9 -9 -4 3 -8 9 -8 15 0 5 4 9 8 9 5 0 9 -7 9 -15z m520 -17 c-3 -8 -6 -5 -6
6 -1 11 2 17 5 13 3 -3 4 -12 1 -19z m567 6 c3 -8 2 -12 -4 -9 -6 3 -10 10
-10 16 0 14 7 11 14 -7z m-366 -19 c-3 -3 -9 2 -12 12 -6 14 -5 15 5 6 7 -7
10 -15 7 -18z m-158 -6 c0 -6 -4 -7 -10 -4 -5 3 -10 11 -10 16 0 6 5 7 10 4 6
-3 10 -11 10 -16z m104 -16 c4 -11 1 -11 -14 -3 -24 13 -25 17 -5 17 8 0 16
-6 19 -14z m-109 -36 c7 -32 30 -105 46 -142 14 -35 41 -184 36 -208 -3 -15
-5 -12 -7 13 -1 19 -6 46 -11 60 -6 16 -7 0 -3 -45 11 -124 13 -167 6 -160 -4
3 -12 41 -18 83 l-11 77 -2 -73 c0 -46 -5 -71 -11 -67 -5 3 -10 24 -10 47 0
35 -2 39 -15 28 -8 -7 -15 -19 -15 -27 0 -8 -4 -12 -8 -9 -4 2 -8 -4 -8 -14 0
-10 5 -16 10 -13 5 4 7 -1 3 -11 -4 -10 -8 -41 -8 -69 -1 -47 -3 -42 -15 38
-7 50 -14 104 -16 122 -1 17 -7 31 -12 30 -7 -1 -12 42 -13 121 -1 67 2 122 6
122 12 0 21 -26 21 -57 0 -19 4 -24 16 -19 8 3 12 2 9 -3 -3 -5 -1 -12 5 -16
6 -4 8 19 5 62 -3 58 -2 65 9 51 23 -31 24 -20 5 43 -21 68 -23 83 -10 74 5
-3 12 -20 16 -38z m33 -13 c-4 -3 -12 5 -18 18 -12 22 -12 22 6 6 10 -10 15
-20 12 -24z m177 16 c3 -5 1 -10 -4 -10 -6 0 -11 5 -11 10 0 6 2 10 4 10 3 0
8 -4 11 -10z m-308 -22 c-3 -8 -6 -5 -6 6 -1 11 2 17 5 13 3 -3 4 -12 1 -19z
m20 0 c-3 -8 -6 -5 -6 6 -1 11 2 17 5 13 3 -3 4 -12 1 -19z m193 -31 c0 -5 -4
-5 -10 -2 -5 3 -10 14 -10 23 0 15 2 15 10 2 5 -8 10 -19 10 -23z m70 -57 c-3
-18 -6 -11 -10 25 -3 28 -3 55 0 60 7 15 16 -56 10 -85z m413 -3 c40 -80 45
-97 27 -97 -7 0 -46 83 -59 127 -5 15 -12 37 -17 48 -15 41 6 7 49 -78z m-373
48 c0 -5 -5 -3 -10 5 -5 8 -10 20 -10 25 0 6 5 3 10 -5 5 -8 10 -19 10 -25z
m410 9 c0 -8 -4 -12 -10 -9 -5 3 -10 10 -10 16 0 5 5 9 10 9 6 0 10 -7 10 -16z
m-700 -9 c0 -8 -4 -15 -10 -15 -5 0 -7 7 -4 15 4 8 8 15 10 15 2 0 4 -7 4 -15z
m-49 -30 c6 15 8 12 6 -15 -1 -19 -6 -35 -12 -35 -5 0 -11 16 -12 35 -1 19 1
26 4 15 l6 -20 8 20z m-217 -22 c4 -9 1 -21 -5 -27 -9 -8 -10 -8 -5 1 3 6 2
14 -4 18 -12 8 -13 25 -1 25 5 0 12 -8 15 -17z m618 -23 c3 -17 1 -33 -4 -36
-4 -3 -8 11 -8 30 0 44 6 47 12 6z m-133 -25 l0 -20 -9 20 c-5 11 -9 27 -9 35
-1 13 0 13 9 0 5 -8 9 -24 9 -35z m-2429 31 c0 -2 -7 -7 -16 -10 -8 -3 -12 -2
-9 4 6 10 25 14 25 6z m2940 -16 c0 -5 -2 -10 -4 -10 -3 0 -8 5 -11 10 -3 6
-1 10 4 10 6 0 11 -4 11 -10z m-423 -87 c-2 -16 -4 -5 -4 22 0 28 2 40 4 28 2
-13 2 -35 0 -50z m-40 35 c-3 -8 -6 -5 -6 6 -1 11 2 17 5 13 3 -3 4 -12 1 -19z
m-310 -30 c-3 -8 -6 -5 -6 6 -1 11 2 17 5 13 3 -3 4 -12 1 -19z m773 -50 c6
-17 5 -28 -1 -28 -5 0 -9 8 -9 18 0 10 -5 23 -11 29 -7 7 -8 19 -4 30 8 17 8
17 12 -2 2 -11 8 -32 13 -47z m-531 19 c0 -21 -1 -21 -9 -2 -12 28 -12 37 0
30 6 -3 10 -16 9 -28z m168 -9 c-3 -8 -6 -5 -6 6 -1 11 2 17 5 13 3 -3 4 -12
1 -19z m-396 -105 c-2 -18 -7 -33 -12 -33 -11 0 -12 85 -2 120 7 22 8 21 13
-15 3 -22 3 -55 1 -72z m309 62 c0 -13 -3 -26 -7 -28 -5 -3 -8 10 -8 28 0 18
3 31 8 28 4 -2 7 -15 7 -28z m525 -96 c14 -44 24 -83 21 -86 -3 -3 -8 8 -12
23 -4 16 -18 53 -31 82 -24 56 -29 77 -14 68 5 -3 21 -42 36 -87z m-40 27 c2
-14 -1 -24 -6 -20 -5 3 -7 9 -4 13 2 5 -2 17 -10 27 -20 26 -19 42 1 22 9 -9
18 -28 19 -42z m-558 -3 c-3 -10 -5 -2 -5 17 0 19 2 27 5 18 2 -10 2 -26 0
-35z m-207 11 c0 -8 -4 -14 -10 -14 -5 0 -10 9 -10 21 0 11 5 17 10 14 6 -3
10 -13 10 -21z m277 -6 c-3 -8 -6 -5 -6 6 -1 11 2 17 5 13 3 -3 4 -12 1 -19z
m463 -26 c0 -15 -2 -15 -10 -2 -13 20 -13 33 0 25 6 -3 10 -14 10 -23z m-441
-89 c0 -18 -3 -33 -9 -33 -6 0 -9 27 -9 63 1 49 3 56 9 32 4 -16 8 -45 9 -62z
m-333 47 c-1 -39 -16 -39 -16 0 0 17 4 30 9 30 4 0 8 -13 7 -30z m-51 10 c3
-5 1 -10 -4 -10 -6 0 -11 5 -11 10 0 6 2 10 4 10 3 0 8 -4 11 -10z m76 -98
c-4 -67 -11 -66 -11 3 0 32 3 55 7 51 4 -4 6 -28 4 -54z m819 25 c0 -5 -4 -5
-10 -2 -5 3 -10 14 -10 23 0 15 2 15 10 2 5 -8 10 -19 10 -23z m-720 -17 c-18
-11 -24 -6 -16 16 5 14 9 15 19 5 9 -9 9 -14 -3 -21z m59 -3 c0 -21 -1 -21 -9
-2 -12 28 -12 37 0 30 6 -3 10 -16 9 -28z m491 -2 c0 -5 -5 -3 -10 5 -5 8 -10
20 -10 25 0 6 5 3 10 -5 5 -8 10 -19 10 -25z m209 -15 c0 -10 -3 -8 -9 5 -12
27 -12 43 0 25 5 -8 9 -22 9 -30z m-472 -2 c-3 -8 -6 -5 -6 6 -1 11 2 17 5 13
3 -3 4 -12 1 -19z m447 -4 c3 -8 2 -12 -4 -9 -6 3 -10 10 -10 16 0 14 7 11 14
-7z m-34 -75 c0 -6 -4 -7 -10 -4 -5 3 -10 11 -10 16 0 6 5 7 10 4 6 -3 10 -11
10 -16z m-405 -131 c-9 -46 -18 -85 -21 -87 -6 -7 -5 8 11 94 8 44 14 82 15
84 0 2 3 2 6 -2 3 -3 -2 -43 -11 -89z m380 22 c3 -5 1 -10 -4 -10 -6 0 -11 5
-11 10 0 6 2 10 4 10 3 0 8 -4 11 -10z m-825 -14 c0 -3 -4 -8 -10 -11 -5 -3
-10 -1 -10 4 0 6 5 11 10 11 6 0 10 -2 10 -4z m1025 -80 c15 -29 20 -44 11
-37 -17 14 -46 67 -46 84 0 14 3 10 35 -47z m-25 -31 c-1 -5 -12 3 -25 18 -14
15 -25 33 -25 40 1 7 12 -1 25 -18 14 -16 25 -34 25 -40z m-1013 18 c1 -36 1
-37 -6 -8 -6 26 -5 45 3 45 1 0 2 -17 3 -37z m130 15 c-3 -8 -6 -5 -6 6 -1 11
2 17 5 13 3 -3 4 -12 1 -19z m805 -3 c3 -13 1 -22 -3 -19 -9 5 -13 44 -5 44 2
0 6 -11 8 -25z m-913 -120 c1 -23 -2 -26 -9 -15 -5 8 -9 31 -9 50 0 29 2 31 9
15 5 -11 9 -33 9 -50z m198 13 c-3 -7 -5 -2 -5 12 0 14 2 19 5 13 2 -7 2 -19
0 -25z m813 -23 c7 -9 8 -15 2 -15 -5 0 -12 7 -16 15 -3 8 -4 15 -2 15 2 0 9
-7 16 -15z m-4790 -23 c0 -24 -8 -32 -26 -25 -22 8 -17 43 6 43 13 0 20 -7 20
-18z m4117 -39 c-3 -10 -5 -4 -5 12 0 17 2 24 5 18 2 -7 2 -21 0 -30z m731
-18 c-3 -4 -16 9 -28 27 l-23 33 28 -27 c16 -15 26 -30 23 -33z m-985 -12 c4
-19 2 -33 -3 -33 -6 0 -10 17 -10 37 0 43 5 41 13 -4z m134 -30 c-2 -16 -4 -5
-4 22 0 28 2 40 4 28 2 -13 2 -35 0 -50z m-2747 -8 c-7 -8 -8 -15 -3 -15 16 0
8 -32 -16 -70 l-23 -35 7 50 c4 28 14 58 22 68 20 21 30 23 13 2z m3704 -41
c3 -8 2 -12 -4 -9 -6 3 -10 10 -10 16 0 14 7 11 14 -7z m-1453 -26 c13 -20 11
-24 -22 -52 -37 -31 -53 -33 -44 -6 3 11 7 33 7 48 1 25 5 29 26 26 14 -1 29
-9 33 -16z m385 -30 c-4 -23 -3 -37 3 -34 5 3 11 -4 15 -17 11 -43 5 -52 -13
-16 -20 41 -28 124 -10 113 7 -4 9 -21 5 -46z m908 26 c10 -38 0 -41 -12 -5
-6 17 -7 31 -3 31 5 0 12 -12 15 -26z m-1394 2 c0 -3 -4 -8 -10 -11 -5 -3 -10
-1 -10 4 0 6 5 11 10 11 6 0 10 -2 10 -4z m790 -78 c0 -5 -7 -3 -15 6 -8 8
-15 25 -15 38 0 22 1 21 15 -6 8 -15 15 -33 15 -38z m-2950 13 c-29 -42 -36
-39 -8 3 13 19 24 33 26 31 3 -2 -6 -18 -18 -34z m1953 -2 c23 -42 22 -49 -11
-49 -43 0 -66 22 -58 53 9 38 46 36 69 -4z m807 16 c0 -8 -4 -15 -10 -15 -5 0
-7 7 -4 15 4 8 8 15 10 15 2 0 4 -7 4 -15z m-727 -15 c3 -11 1 -20 -4 -20 -5
0 -9 9 -9 20 0 11 2 20 4 20 2 0 6 -9 9 -20z m1355 -105 c-3 -3 -9 2 -12 12
-6 14 -5 15 5 6 7 -7 10 -15 7 -18z m-414 -91 c10 -25 -1 -29 -14 -5 -6 12 -7
21 -1 21 5 0 12 -7 15 -16z m-244 -19 c0 -8 -2 -15 -4 -15 -2 0 -6 7 -10 15
-3 8 -1 15 4 15 6 0 10 -7 10 -15z m618 -105 c3 -7 -12 -1 -32 12 -20 13 -36
27 -36 31 0 12 64 -29 68 -43z m343 23 c13 -16 12 -17 -3 -4 -10 7 -18 15 -18
17 0 8 8 3 21 -13z m-355 -194 c20 -22 23 -28 8 -19 -18 11 -50 50 -41 50 2 0
16 -14 33 -31z m287 -39 c10 0 17 -4 17 -9 0 -8 -60 2 -64 11 -1 2 -10 14 -21
27 -19 24 -19 24 16 -2 20 -15 43 -27 52 -27z m-208 -10 c10 -11 16 -20 13
-20 -3 0 -13 9 -23 20 -10 11 -16 20 -13 20 3 0 13 -9 23 -20z m-15 -47 c0 -8
-38 17 -51 33 -9 11 -2 9 19 -6 17 -13 32 -25 32 -27z m244 -279 c27 -10 18
-25 -11 -18 -46 11 -62 23 -31 24 14 0 33 -3 42 -6z m-40 -75 c-31 -12 -40 -9
-20 6 10 8 24 11 29 8 6 -4 2 -10 -9 -14z m-73 2 c-8 -5 -20 -7 -28 -4 -21 8
-15 13 15 13 20 0 23 -3 13 -9z m369 -493 c0 -6 -6 -5 -15 2 -8 7 -15 14 -15
16 0 2 7 1 15 -2 8 -4 15 -11 15 -16z m-5591 -140 c1 -5 -3 -8 -9 -8 -5 0 -10
12 -9 28 0 24 1 25 9 7 5 -11 9 -23 9 -27z m-39 -73 c0 -8 -4 -15 -10 -15 -5
0 -7 7 -4 15 4 8 8 15 10 15 2 0 4 -7 4 -15z m107 -35 c3 -16 10 -30 15 -30
16 0 -11 -183 -30 -202 -7 -7 -12 -36 -12 -66 0 -29 -5 -62 -10 -73 -6 -10
-11 -36 -12 -56 -1 -21 -10 -46 -20 -57 -10 -11 -18 -27 -18 -37 0 -25 -24
-40 -62 -37 -19 1 -39 -1 -45 -5 -7 -4 -20 7 -32 27 -27 43 -27 109 0 181 19
51 27 59 55 56 8 -1 10 14 6 45 -4 41 -2 48 26 74 20 18 38 26 50 23 18 -4 19
1 18 64 -1 54 3 74 19 95 26 36 44 35 52 -2z m-439 -745 c-2 -14 -7 -26 -13
-26 -5 0 -16 -5 -22 -11 -10 -8 -13 -5 -13 10 0 24 16 38 23 20 3 -7 6 -3 6
10 1 12 6 22 12 22 6 0 9 -11 7 -25z m19 3 c-3 -8 -6 -5 -6 6 -1 11 2 17 5 13
3 -3 4 -12 1 -19z m6438 -219 c8 -9 15 -20 15 -25 0 -5 9 -15 20 -22 37 -23
91 -128 74 -145 -8 -8 -34 18 -34 34 0 6 -10 22 -22 34 -13 13 -39 48 -58 79
-19 31 -38 56 -41 56 -4 0 -6 12 -6 27 l0 27 18 -24 c10 -14 26 -32 34 -41z
m185 -255 c0 -14 -12 -19 -23 -8 -9 9 4 35 14 28 5 -3 9 -12 9 -20z m18 -225
c-13 -27 -27 -49 -31 -49 -9 0 -4 76 7 102 4 9 5 22 1 28 -3 5 -2 10 4 10 5 0
11 -3 14 -7 2 -5 2 -2 0 6 -2 8 2 18 9 22 24 15 21 -58 -4 -112z m-118 -38
c-6 -12 -14 -21 -19 -21 -11 0 -1 51 13 66 16 17 21 -19 6 -45z m-3275 -349
c-1 -16 -5 -34 -9 -41 -4 -6 -3 -17 2 -24 7 -8 6 -18 -3 -31 -12 -16 -17 -17
-45 -5 -22 10 -30 19 -26 33 3 10 1 29 -4 42 -11 27 -8 28 23 13 20 -9 20 -9
5 4 -25 20 -22 28 7 23 14 -3 25 0 25 5 0 5 6 9 14 9 9 0 13 -10 11 -28z"/>
<path d="M2268 6713 c7 -3 16 -2 19 1 4 3 -2 6 -13 5 -11 0 -14 -3 -6 -6z"/>
<path d="M2840 5099 c0 -5 5 -7 10 -4 6 3 10 8 10 11 0 2 -4 4 -10 4 -5 0 -10
-5 -10 -11z"/>
<path d="M4760 4370 c0 -5 5 -10 11 -10 5 0 7 5 4 10 -3 6 -8 10 -11 10 -2 0
-4 -4 -4 -10z"/>
<path d="M3240 4162 c0 -6 9 -12 20 -15 11 -3 20 -3 20 -1 0 2 -9 8 -20 14
-11 6 -20 7 -20 2z"/>
<path d="M2521 4041 c-1 -19 -4 -21 -15 -12 -11 10 -13 4 -8 -34 5 -52 -1 -57
-22 -17 -17 31 -21 16 -6 -24 9 -24 9 -25 -5 -14 -19 16 -19 10 -1 -26 16 -30
13 -44 -10 -44 -22 0 6 -49 45 -78 17 -12 31 -27 31 -33 0 -16 23 -34 45 -35
31 -2 73 -12 87 -20 7 -5 49 -9 93 -10 44 -2 98 -5 121 -9 22 -3 51 -1 65 4
13 5 18 10 12 10 -7 1 -13 6 -13 11 0 6 22 10 49 10 88 0 108 8 137 57 l26 45
21 -21 c18 -18 20 -24 10 -41 -14 -22 -4 -32 37 -38 14 -2 44 -13 67 -24 24
-12 46 -18 50 -15 15 16 -61 123 -85 120 -9 -1 -11 0 -5 3 18 8 -16 57 -34 50
-8 -3 -11 -1 -8 5 10 15 -55 77 -95 90 -19 6 -42 17 -50 23 -33 26 -73 41 -77
30 -4 -11 -29 -10 -63 3 -8 4 -18 5 -22 5 -5 -1 -8 3 -8 10 0 9 -3 9 -12 0 -7
-7 -17 -8 -30 -1 -13 7 -18 6 -18 -2 0 -8 -4 -8 -15 1 -12 10 -15 10 -15 -1
-1 -9 -4 -8 -11 4 -10 17 -12 17 -23 2 -9 -13 -17 -14 -38 -6 -14 5 -29 7 -32
4 -3 -3 -8 1 -12 10 -5 15 -8 14 -24 -6 -17 -20 -19 -20 -25 -4 -10 24 -27 21
-23 -5 5 -32 -19 -33 -37 -1 -13 24 -15 24 -9 5 6 -24 6 -24 -14 -4 -11 11
-22 26 -25 33 -3 8 -6 4 -6 -10z m334 -193 c17 -59 22 -88 14 -88 -18 0 -78
34 -83 47 -8 20 4 44 28 53 31 13 33 12 41 -12z m180 -58 c3 -5 1 -10 -4 -10
-6 0 -11 5 -11 10 0 6 2 10 4 10 3 0 8 -4 11 -10z m-45 -20 c0 -11 -4 -20 -8
-20 -4 0 -8 9 -9 20 -1 11 2 20 8 20 5 0 9 -9 9 -20z"/>
<path d="M4915 3720 c3 -5 8 -10 11 -10 2 0 4 5 4 10 0 6 -5 10 -11 10 -5 0
-7 -4 -4 -10z"/>
<path d="M2970 3690 c0 -5 4 -10 9 -10 6 0 13 5 16 10 3 6 -1 10 -9 10 -9 0
-16 -4 -16 -10z"/>
<path d="M5110 3685 c7 -9 15 -13 17 -11 7 7 -7 26 -19 26 -6 0 -6 -6 2 -15z"/>
<path d="M4867 3670 c3 -11 9 -20 14 -20 11 0 11 3 3 24 -9 23 -23 20 -17 -4z"/>
<path d="M4870 3633 c0 -5 14 -22 30 -38 17 -16 30 -25 30 -19 -1 19 -60 76
-60 57z"/>
<path d="M4936 3574 c-4 -10 3 -23 16 -35 28 -22 50 -25 42 -4 -4 8 -10 13
-14 10 -4 -3 -14 3 -21 12 -10 12 -10 14 -1 9 7 -4 12 -1 12 8 0 21 -26 21
-34 0z"/>
<path d="M5241 3407 c2 -1 13 -9 24 -17 19 -14 19 -14 6 3 -7 9 -18 17 -24 17
-6 0 -8 -1 -6 -3z"/>
<path d="M5130 3312 c6 -13 14 -21 18 -18 3 4 -2 14 -12 24 -18 16 -18 16 -6
-6z"/>
<path d="M5180 3251 c0 -5 9 -19 20 -32 l21 -24 -16 33 c-15 31 -25 41 -25 23z"/>
<path d="M4345 2424 c-77 -37 -99 -59 -75 -74 10 -6 22 -4 37 5 12 8 28 15 35
15 7 0 19 9 26 21 10 15 20 19 37 15 18 -5 28 0 45 24 l21 30 -28 -1 c-15 0
-59 -16 -98 -35z"/>
<path d="M3165 2403 c-33 -2 -70 -5 -82 -8 -30 -7 -30 -41 -1 -51 38 -12 101
-85 105 -123 2 -18 16 -50 30 -70 61 -84 222 -211 268 -211 13 0 36 -5 50 -10
18 -7 33 -7 45 0 13 7 21 7 25 0 3 -5 18 -10 32 -10 29 0 27 8 -3 15 -77 17
-161 47 -174 62 -8 10 -26 24 -40 31 -57 30 -65 40 -50 67 7 13 17 22 22 19
23 -15 144 -20 341 -15 67 2 30 21 -40 21 -52 0 -71 4 -87 19 -12 11 -39 22
-61 25 -22 4 -52 15 -67 26 -15 11 -37 20 -48 20 -16 0 -26 11 -38 41 -15 38
-17 40 -49 34 -29 -5 -34 -3 -43 20 -14 36 -15 35 28 35 57 1 119 15 135 32
13 13 12 16 -12 25 -26 9 -156 12 -286 6z m46 -176 c-10 -9 -11 -8 -5 6 3 10
9 15 12 12 3 -3 0 -11 -7 -18z m103 -56 c3 -5 -1 -11 -9 -15 -9 -3 -15 0 -15
9 0 16 16 20 24 6z"/>
<path d="M3640 2369 c0 -5 -5 -7 -12 -3 -7 4 -8 3 -4 -4 8 -13 69 -26 88 -19
7 3 -3 12 -24 21 -44 19 -48 19 -48 5z"/>
<path d="M4180 2294 c0 -14 3 -14 15 -4 8 7 15 14 15 16 0 2 -7 4 -15 4 -8 0
-15 -7 -15 -16z"/>
<path d="M3815 2110 c-3 -5 1 -10 10 -10 9 0 13 5 10 10 -3 6 -8 10 -10 10 -2
0 -7 -4 -10 -10z"/>
<path d="M5002 4850 c0 -14 2 -19 5 -12 2 6 2 18 0 25 -3 6 -5 1 -5 -13z"/>
<path d="M4920 4830 c-1 -3 -4 -25 -5 -49 -2 -28 0 -40 7 -33 5 5 8 27 5 48
-2 22 -5 37 -7 34z"/>
<path d="M3475 319 c-4 -6 -5 -12 -2 -15 2 -3 7 2 10 11 7 17 1 20 -8 4z"/>
<path d="M2945 6990 c-3 -6 1 -7 9 -4 18 7 21 14 7 14 -6 0 -13 -4 -16 -10z"/>
<path d="M5030 6520 c0 -5 5 -10 11 -10 5 0 7 5 4 10 -3 6 -8 10 -11 10 -2 0
-4 -4 -4 -10z"/>
<path d="M410 5812 c0 -9 12 -17 35 -22 6 -1 16 -6 23 -12 9 -8 12 -6 12 6 0
11 -7 16 -18 14 -11 -2 -26 3 -35 11 -10 7 -17 9 -17 3z"/>
<path d="M366 5781 c-41 -79 -20 -119 37 -70 20 17 34 35 31 40 -3 5 0 8 7 7
6 -2 14 3 17 11 3 8 0 11 -7 7 -6 -4 -21 2 -33 13 -29 27 -35 26 -52 -8z"/>
<path d="M5770 3571 c0 -5 7 -15 17 -22 15 -13 15 -12 4 9 -12 23 -21 28 -21
13z"/>
<path d="M6093 3386 c12 -13 26 -22 31 -19 5 3 -2 14 -15 24 -34 26 -41 23
-16 -5z"/>
<path d="M391 2567 c-15 -38 -25 -177 -11 -157 5 8 10 38 10 65 0 28 6 60 14
71 9 13 11 25 6 34 -7 11 -11 8 -19 -13z"/>
<path d="M6990 479 c0 -11 5 -17 10 -14 6 3 10 13 10 21 0 8 -4 14 -10 14 -5
0 -10 -9 -10 -21z"/>
<path d="M6890 100 c-17 -31 -3 -60 26 -58 42 4 47 78 5 78 -11 0 -25 -9 -31
-20z"/>
</g>
</svg>
